<svg width="20" height="20" viewBox="0 0 20 20" fill="none" xmlns="http://www.w3.org/2000/svg">
<g clip-path="url(#clip0_1_17485)">
<path d="M15.9998 10.6667V17.3333C15.9998 17.7333 15.7332 18 15.3332 18H4.6665C4.2665 18 3.99984 17.7333 3.99984 17.3333V10.6667H9.33317V16.6667H10.6665V10.6667H15.9998ZM9.33317 6H3.33317C2.93317 6 2.6665 6.26667 2.6665 6.66667V8.66667C2.6665 9.06667 2.93317 9.33333 3.33317 9.33333H9.33317V6ZM16.6665 6H10.6665V9.33333H16.6665C17.0665 9.33333 17.3332 9.06667 17.3332 8.66667V6.66667C17.3332 6.26667 17.0665 6 16.6665 6ZM14.7332 5.26667L14.7998 5C15.0665 4.33333 14.9998 3.53333 14.5998 2.93333C14.1998 2.33333 13.4665 2 12.7332 2C11.7998 2 10.9998 2.53333 10.6665 3.4L9.33317 6.66667H12.6665C13.5332 6.66667 14.3998 6.13333 14.7332 5.26667ZM11.9332 3.86667C12.0665 3.53333 12.3998 3.33333 12.7332 3.33333C12.9998 3.33333 13.2665 3.46667 13.4665 3.73333C13.5998 4 13.6665 4.26667 13.5332 4.53333L13.4665 4.8C13.3332 5.13333 12.9998 5.33333 12.6665 5.33333H11.3332L11.9332 3.86667ZM9.33317 3.4C8.99984 2.53333 8.13317 2 7.2665 2C6.53317 2 5.79984 2.33333 5.39984 3C4.99984 3.6 4.93317 4.33333 5.19984 5.06667L5.2665 5.33333C5.59984 6.13333 6.4665 6.66667 7.33317 6.66667H10.5998L9.33317 3.4ZM8.0665 3.86667L8.6665 5.33333H7.33317C6.99984 5.33333 6.6665 5.13333 6.53317 4.8L6.39984 4.53333C6.33317 4.26667 6.33317 3.93333 6.53317 3.73333C6.6665 3.46667 6.93317 3.33333 7.2665 3.33333C7.59984 3.33333 7.93317 3.53333 8.0665 3.86667Z" fill="#313132"/>
</g>
<defs>
<clipPath id="clip0_1_17485">
<rect width="20" height="20" fill="white"/>
</clipPath>
</defs>
</svg>
